<mxfile host="app.diagrams.net" modified="2022-08-17T06:24:49.643Z" agent="5.0 (Windows NT 10.0; Win64; x64) AppleWebKit/537.36 (KHTML, like Gecko) Chrome/103.0.0.0 Safari/537.36" etag="5D-MNnApo3O_0yAVX5i_" version="20.2.3" type="github">
  <diagram id="7ooh5Gn-IYOu5sbPZDMA" name="第 1 页">
    <mxGraphModel dx="981" dy="526" grid="1" gridSize="10" guides="1" tooltips="1" connect="1" arrows="1" fold="1" page="1" pageScale="1" pageWidth="827" pageHeight="1169" math="0" shadow="0">
      <root>
        <mxCell id="0" />
        <mxCell id="1" parent="0" />
        <mxCell id="gXWH_7wL7tQlujZLRzpM-132" value="" style="rounded=0;whiteSpace=wrap;html=1;fontSize=12;fillColor=#f5f5f5;strokeColor=#666666;fontColor=#333333;" vertex="1" parent="1">
          <mxGeometry x="440" y="40" width="310" height="290" as="geometry" />
        </mxCell>
        <mxCell id="gXWH_7wL7tQlujZLRzpM-137" style="edgeStyle=orthogonalEdgeStyle;rounded=0;orthogonalLoop=1;jettySize=auto;html=1;entryX=0.5;entryY=0;entryDx=0;entryDy=0;fontSize=12;" edge="1" parent="1" source="FNiupwR-HOzhVtwltUME-1" target="gXWH_7wL7tQlujZLRzpM-134">
          <mxGeometry relative="1" as="geometry" />
        </mxCell>
        <mxCell id="FNiupwR-HOzhVtwltUME-1" value="Input Layer" style="rounded=0;whiteSpace=wrap;html=1;" parent="1" vertex="1">
          <mxGeometry x="180" y="10" width="200" height="30" as="geometry" />
        </mxCell>
        <mxCell id="gXWH_7wL7tQlujZLRzpM-1" value="" style="rounded=0;whiteSpace=wrap;html=1;fontSize=14;fillColor=#d5e8d4;strokeColor=#82b366;" vertex="1" parent="1">
          <mxGeometry x="530" y="50" width="20" height="20" as="geometry" />
        </mxCell>
        <mxCell id="gXWH_7wL7tQlujZLRzpM-2" value="" style="rounded=0;whiteSpace=wrap;html=1;fontSize=14;fillColor=#d5e8d4;strokeColor=#82b366;" vertex="1" parent="1">
          <mxGeometry x="550" y="50" width="20" height="20" as="geometry" />
        </mxCell>
        <mxCell id="gXWH_7wL7tQlujZLRzpM-3" value="" style="rounded=0;whiteSpace=wrap;html=1;fontSize=14;fillColor=#d5e8d4;strokeColor=#82b366;" vertex="1" parent="1">
          <mxGeometry x="570" y="50" width="20" height="20" as="geometry" />
        </mxCell>
        <mxCell id="gXWH_7wL7tQlujZLRzpM-4" value="" style="rounded=0;whiteSpace=wrap;html=1;fontSize=14;fillColor=#d5e8d4;strokeColor=#82b366;" vertex="1" parent="1">
          <mxGeometry x="590" y="50" width="20" height="20" as="geometry" />
        </mxCell>
        <mxCell id="gXWH_7wL7tQlujZLRzpM-5" value="" style="rounded=0;whiteSpace=wrap;html=1;fontSize=14;fillColor=#d5e8d4;strokeColor=#82b366;" vertex="1" parent="1">
          <mxGeometry x="610" y="50" width="20" height="20" as="geometry" />
        </mxCell>
        <mxCell id="gXWH_7wL7tQlujZLRzpM-6" value="" style="rounded=0;whiteSpace=wrap;html=1;fontSize=14;fillColor=#d5e8d4;strokeColor=#82b366;" vertex="1" parent="1">
          <mxGeometry x="530" y="70" width="20" height="20" as="geometry" />
        </mxCell>
        <mxCell id="gXWH_7wL7tQlujZLRzpM-7" value="" style="rounded=0;whiteSpace=wrap;html=1;fontSize=14;fillColor=#d5e8d4;strokeColor=#82b366;" vertex="1" parent="1">
          <mxGeometry x="550" y="70" width="20" height="20" as="geometry" />
        </mxCell>
        <mxCell id="gXWH_7wL7tQlujZLRzpM-8" value="" style="rounded=0;whiteSpace=wrap;html=1;fontSize=14;fillColor=#d5e8d4;strokeColor=#82b366;" vertex="1" parent="1">
          <mxGeometry x="570" y="70" width="20" height="20" as="geometry" />
        </mxCell>
        <mxCell id="gXWH_7wL7tQlujZLRzpM-9" value="" style="rounded=0;whiteSpace=wrap;html=1;fontSize=14;fillColor=#d5e8d4;strokeColor=#82b366;" vertex="1" parent="1">
          <mxGeometry x="590" y="70" width="20" height="20" as="geometry" />
        </mxCell>
        <mxCell id="gXWH_7wL7tQlujZLRzpM-10" value="" style="rounded=0;whiteSpace=wrap;html=1;fontSize=14;fillColor=#d5e8d4;strokeColor=#82b366;" vertex="1" parent="1">
          <mxGeometry x="610" y="70" width="20" height="20" as="geometry" />
        </mxCell>
        <mxCell id="gXWH_7wL7tQlujZLRzpM-11" value="" style="rounded=0;whiteSpace=wrap;html=1;fontSize=14;fillColor=#d5e8d4;strokeColor=#82b366;" vertex="1" parent="1">
          <mxGeometry x="530" y="90" width="20" height="20" as="geometry" />
        </mxCell>
        <mxCell id="gXWH_7wL7tQlujZLRzpM-12" value="" style="rounded=0;whiteSpace=wrap;html=1;fontSize=14;fillColor=#d5e8d4;strokeColor=#82b366;" vertex="1" parent="1">
          <mxGeometry x="550" y="90" width="20" height="20" as="geometry" />
        </mxCell>
        <mxCell id="gXWH_7wL7tQlujZLRzpM-13" value="" style="rounded=0;whiteSpace=wrap;html=1;fontSize=14;fillColor=#d5e8d4;strokeColor=#82b366;" vertex="1" parent="1">
          <mxGeometry x="570" y="90" width="20" height="20" as="geometry" />
        </mxCell>
        <mxCell id="gXWH_7wL7tQlujZLRzpM-14" value="" style="rounded=0;whiteSpace=wrap;html=1;fontSize=14;fillColor=#d5e8d4;strokeColor=#82b366;" vertex="1" parent="1">
          <mxGeometry x="590" y="90" width="20" height="20" as="geometry" />
        </mxCell>
        <mxCell id="gXWH_7wL7tQlujZLRzpM-15" value="" style="rounded=0;whiteSpace=wrap;html=1;fontSize=14;fillColor=#d5e8d4;strokeColor=#82b366;" vertex="1" parent="1">
          <mxGeometry x="610" y="90" width="20" height="20" as="geometry" />
        </mxCell>
        <mxCell id="gXWH_7wL7tQlujZLRzpM-16" value="" style="rounded=0;whiteSpace=wrap;html=1;fontSize=14;fillColor=#d5e8d4;strokeColor=#82b366;" vertex="1" parent="1">
          <mxGeometry x="530" y="110" width="20" height="20" as="geometry" />
        </mxCell>
        <mxCell id="gXWH_7wL7tQlujZLRzpM-17" value="" style="rounded=0;whiteSpace=wrap;html=1;fontSize=14;fillColor=#d5e8d4;strokeColor=#82b366;" vertex="1" parent="1">
          <mxGeometry x="550" y="110" width="20" height="20" as="geometry" />
        </mxCell>
        <mxCell id="gXWH_7wL7tQlujZLRzpM-18" value="" style="rounded=0;whiteSpace=wrap;html=1;fontSize=14;fillColor=#d5e8d4;strokeColor=#82b366;" vertex="1" parent="1">
          <mxGeometry x="570" y="110" width="20" height="20" as="geometry" />
        </mxCell>
        <mxCell id="gXWH_7wL7tQlujZLRzpM-19" value="" style="rounded=0;whiteSpace=wrap;html=1;fontSize=14;fillColor=#d5e8d4;strokeColor=#82b366;" vertex="1" parent="1">
          <mxGeometry x="590" y="110" width="20" height="20" as="geometry" />
        </mxCell>
        <mxCell id="gXWH_7wL7tQlujZLRzpM-20" value="" style="rounded=0;whiteSpace=wrap;html=1;fontSize=14;fillColor=#d5e8d4;strokeColor=#82b366;" vertex="1" parent="1">
          <mxGeometry x="610" y="110" width="20" height="20" as="geometry" />
        </mxCell>
        <mxCell id="gXWH_7wL7tQlujZLRzpM-21" value="" style="rounded=0;whiteSpace=wrap;html=1;fontSize=14;fillColor=#d5e8d4;strokeColor=#82b366;" vertex="1" parent="1">
          <mxGeometry x="530" y="130" width="20" height="20" as="geometry" />
        </mxCell>
        <mxCell id="gXWH_7wL7tQlujZLRzpM-22" value="" style="rounded=0;whiteSpace=wrap;html=1;fontSize=14;fillColor=#d5e8d4;strokeColor=#82b366;" vertex="1" parent="1">
          <mxGeometry x="550" y="130" width="20" height="20" as="geometry" />
        </mxCell>
        <mxCell id="gXWH_7wL7tQlujZLRzpM-23" value="" style="rounded=0;whiteSpace=wrap;html=1;fontSize=14;fillColor=#d5e8d4;strokeColor=#82b366;" vertex="1" parent="1">
          <mxGeometry x="570" y="130" width="20" height="20" as="geometry" />
        </mxCell>
        <mxCell id="gXWH_7wL7tQlujZLRzpM-24" value="" style="rounded=0;whiteSpace=wrap;html=1;fontSize=14;fillColor=#d5e8d4;strokeColor=#82b366;" vertex="1" parent="1">
          <mxGeometry x="590" y="130" width="20" height="20" as="geometry" />
        </mxCell>
        <mxCell id="gXWH_7wL7tQlujZLRzpM-25" value="" style="rounded=0;whiteSpace=wrap;html=1;fontSize=14;fillColor=#d5e8d4;strokeColor=#82b366;" vertex="1" parent="1">
          <mxGeometry x="610" y="130" width="20" height="20" as="geometry" />
        </mxCell>
        <mxCell id="gXWH_7wL7tQlujZLRzpM-26" value="" style="rounded=0;whiteSpace=wrap;html=1;fontSize=14;fillColor=#d5e8d4;strokeColor=#82b366;" vertex="1" parent="1">
          <mxGeometry x="520" y="60" width="20" height="20" as="geometry" />
        </mxCell>
        <mxCell id="gXWH_7wL7tQlujZLRzpM-27" value="" style="rounded=0;whiteSpace=wrap;html=1;fontSize=14;fillColor=#d5e8d4;strokeColor=#82b366;" vertex="1" parent="1">
          <mxGeometry x="540" y="60" width="20" height="20" as="geometry" />
        </mxCell>
        <mxCell id="gXWH_7wL7tQlujZLRzpM-28" value="" style="rounded=0;whiteSpace=wrap;html=1;fontSize=14;fillColor=#d5e8d4;strokeColor=#82b366;" vertex="1" parent="1">
          <mxGeometry x="560" y="60" width="20" height="20" as="geometry" />
        </mxCell>
        <mxCell id="gXWH_7wL7tQlujZLRzpM-29" value="" style="rounded=0;whiteSpace=wrap;html=1;fontSize=14;fillColor=#d5e8d4;strokeColor=#82b366;" vertex="1" parent="1">
          <mxGeometry x="580" y="60" width="20" height="20" as="geometry" />
        </mxCell>
        <mxCell id="gXWH_7wL7tQlujZLRzpM-30" value="" style="rounded=0;whiteSpace=wrap;html=1;fontSize=14;fillColor=#d5e8d4;strokeColor=#82b366;" vertex="1" parent="1">
          <mxGeometry x="600" y="60" width="20" height="20" as="geometry" />
        </mxCell>
        <mxCell id="gXWH_7wL7tQlujZLRzpM-31" value="" style="rounded=0;whiteSpace=wrap;html=1;fontSize=14;fillColor=#d5e8d4;strokeColor=#82b366;" vertex="1" parent="1">
          <mxGeometry x="520" y="80" width="20" height="20" as="geometry" />
        </mxCell>
        <mxCell id="gXWH_7wL7tQlujZLRzpM-32" value="" style="rounded=0;whiteSpace=wrap;html=1;fontSize=14;fillColor=#d5e8d4;strokeColor=#82b366;" vertex="1" parent="1">
          <mxGeometry x="540" y="80" width="20" height="20" as="geometry" />
        </mxCell>
        <mxCell id="gXWH_7wL7tQlujZLRzpM-33" value="" style="rounded=0;whiteSpace=wrap;html=1;fontSize=14;fillColor=#d5e8d4;strokeColor=#82b366;" vertex="1" parent="1">
          <mxGeometry x="560" y="80" width="20" height="20" as="geometry" />
        </mxCell>
        <mxCell id="gXWH_7wL7tQlujZLRzpM-34" value="" style="rounded=0;whiteSpace=wrap;html=1;fontSize=14;fillColor=#d5e8d4;strokeColor=#82b366;" vertex="1" parent="1">
          <mxGeometry x="580" y="80" width="20" height="20" as="geometry" />
        </mxCell>
        <mxCell id="gXWH_7wL7tQlujZLRzpM-35" value="" style="rounded=0;whiteSpace=wrap;html=1;fontSize=14;fillColor=#d5e8d4;strokeColor=#82b366;" vertex="1" parent="1">
          <mxGeometry x="600" y="80" width="20" height="20" as="geometry" />
        </mxCell>
        <mxCell id="gXWH_7wL7tQlujZLRzpM-36" value="" style="rounded=0;whiteSpace=wrap;html=1;fontSize=14;fillColor=#d5e8d4;strokeColor=#82b366;" vertex="1" parent="1">
          <mxGeometry x="520" y="100" width="20" height="20" as="geometry" />
        </mxCell>
        <mxCell id="gXWH_7wL7tQlujZLRzpM-37" value="" style="rounded=0;whiteSpace=wrap;html=1;fontSize=14;fillColor=#d5e8d4;strokeColor=#82b366;" vertex="1" parent="1">
          <mxGeometry x="540" y="100" width="20" height="20" as="geometry" />
        </mxCell>
        <mxCell id="gXWH_7wL7tQlujZLRzpM-38" value="" style="rounded=0;whiteSpace=wrap;html=1;fontSize=14;fillColor=#d5e8d4;strokeColor=#82b366;" vertex="1" parent="1">
          <mxGeometry x="560" y="100" width="20" height="20" as="geometry" />
        </mxCell>
        <mxCell id="gXWH_7wL7tQlujZLRzpM-39" value="" style="rounded=0;whiteSpace=wrap;html=1;fontSize=14;fillColor=#d5e8d4;strokeColor=#82b366;" vertex="1" parent="1">
          <mxGeometry x="580" y="100" width="20" height="20" as="geometry" />
        </mxCell>
        <mxCell id="gXWH_7wL7tQlujZLRzpM-40" value="" style="rounded=0;whiteSpace=wrap;html=1;fontSize=14;fillColor=#d5e8d4;strokeColor=#82b366;" vertex="1" parent="1">
          <mxGeometry x="600" y="100" width="20" height="20" as="geometry" />
        </mxCell>
        <mxCell id="gXWH_7wL7tQlujZLRzpM-41" value="" style="rounded=0;whiteSpace=wrap;html=1;fontSize=14;fillColor=#d5e8d4;strokeColor=#82b366;" vertex="1" parent="1">
          <mxGeometry x="520" y="120" width="20" height="20" as="geometry" />
        </mxCell>
        <mxCell id="gXWH_7wL7tQlujZLRzpM-42" value="" style="rounded=0;whiteSpace=wrap;html=1;fontSize=14;fillColor=#d5e8d4;strokeColor=#82b366;" vertex="1" parent="1">
          <mxGeometry x="540" y="120" width="20" height="20" as="geometry" />
        </mxCell>
        <mxCell id="gXWH_7wL7tQlujZLRzpM-43" value="" style="rounded=0;whiteSpace=wrap;html=1;fontSize=14;fillColor=#d5e8d4;strokeColor=#82b366;" vertex="1" parent="1">
          <mxGeometry x="560" y="120" width="20" height="20" as="geometry" />
        </mxCell>
        <mxCell id="gXWH_7wL7tQlujZLRzpM-44" value="" style="rounded=0;whiteSpace=wrap;html=1;fontSize=14;fillColor=#d5e8d4;strokeColor=#82b366;" vertex="1" parent="1">
          <mxGeometry x="580" y="120" width="20" height="20" as="geometry" />
        </mxCell>
        <mxCell id="gXWH_7wL7tQlujZLRzpM-45" value="" style="rounded=0;whiteSpace=wrap;html=1;fontSize=14;fillColor=#d5e8d4;strokeColor=#82b366;" vertex="1" parent="1">
          <mxGeometry x="600" y="120" width="20" height="20" as="geometry" />
        </mxCell>
        <mxCell id="gXWH_7wL7tQlujZLRzpM-46" value="" style="rounded=0;whiteSpace=wrap;html=1;fontSize=14;fillColor=#d5e8d4;strokeColor=#82b366;" vertex="1" parent="1">
          <mxGeometry x="520" y="140" width="20" height="20" as="geometry" />
        </mxCell>
        <mxCell id="gXWH_7wL7tQlujZLRzpM-47" value="" style="rounded=0;whiteSpace=wrap;html=1;fontSize=14;fillColor=#d5e8d4;strokeColor=#82b366;" vertex="1" parent="1">
          <mxGeometry x="540" y="140" width="20" height="20" as="geometry" />
        </mxCell>
        <mxCell id="gXWH_7wL7tQlujZLRzpM-48" value="" style="rounded=0;whiteSpace=wrap;html=1;fontSize=14;fillColor=#d5e8d4;strokeColor=#82b366;" vertex="1" parent="1">
          <mxGeometry x="560" y="140" width="20" height="20" as="geometry" />
        </mxCell>
        <mxCell id="gXWH_7wL7tQlujZLRzpM-49" value="" style="rounded=0;whiteSpace=wrap;html=1;fontSize=14;fillColor=#d5e8d4;strokeColor=#82b366;" vertex="1" parent="1">
          <mxGeometry x="580" y="140" width="20" height="20" as="geometry" />
        </mxCell>
        <mxCell id="gXWH_7wL7tQlujZLRzpM-50" value="" style="rounded=0;whiteSpace=wrap;html=1;fontSize=14;fillColor=#d5e8d4;strokeColor=#82b366;" vertex="1" parent="1">
          <mxGeometry x="600" y="140" width="20" height="20" as="geometry" />
        </mxCell>
        <mxCell id="gXWH_7wL7tQlujZLRzpM-51" value="" style="rounded=0;whiteSpace=wrap;html=1;fontSize=14;fillColor=#d5e8d4;strokeColor=#82b366;" vertex="1" parent="1">
          <mxGeometry x="510" y="70" width="20" height="20" as="geometry" />
        </mxCell>
        <mxCell id="gXWH_7wL7tQlujZLRzpM-52" value="" style="rounded=0;whiteSpace=wrap;html=1;fontSize=14;fillColor=#d5e8d4;strokeColor=#82b366;" vertex="1" parent="1">
          <mxGeometry x="530" y="70" width="20" height="20" as="geometry" />
        </mxCell>
        <mxCell id="gXWH_7wL7tQlujZLRzpM-53" value="" style="rounded=0;whiteSpace=wrap;html=1;fontSize=14;fillColor=#d5e8d4;strokeColor=#82b366;" vertex="1" parent="1">
          <mxGeometry x="550" y="70" width="20" height="20" as="geometry" />
        </mxCell>
        <mxCell id="gXWH_7wL7tQlujZLRzpM-54" value="" style="rounded=0;whiteSpace=wrap;html=1;fontSize=14;fillColor=#d5e8d4;strokeColor=#82b366;" vertex="1" parent="1">
          <mxGeometry x="570" y="70" width="20" height="20" as="geometry" />
        </mxCell>
        <mxCell id="gXWH_7wL7tQlujZLRzpM-55" value="" style="rounded=0;whiteSpace=wrap;html=1;fontSize=14;fillColor=#d5e8d4;strokeColor=#82b366;" vertex="1" parent="1">
          <mxGeometry x="590" y="70" width="20" height="20" as="geometry" />
        </mxCell>
        <mxCell id="gXWH_7wL7tQlujZLRzpM-56" value="" style="rounded=0;whiteSpace=wrap;html=1;fontSize=14;fillColor=#d5e8d4;strokeColor=#82b366;" vertex="1" parent="1">
          <mxGeometry x="510" y="90" width="20" height="20" as="geometry" />
        </mxCell>
        <mxCell id="gXWH_7wL7tQlujZLRzpM-57" value="" style="rounded=0;whiteSpace=wrap;html=1;fontSize=14;fillColor=#d5e8d4;strokeColor=#82b366;" vertex="1" parent="1">
          <mxGeometry x="530" y="90" width="20" height="20" as="geometry" />
        </mxCell>
        <mxCell id="gXWH_7wL7tQlujZLRzpM-58" value="" style="rounded=0;whiteSpace=wrap;html=1;fontSize=14;fillColor=#d5e8d4;strokeColor=#82b366;" vertex="1" parent="1">
          <mxGeometry x="550" y="90" width="20" height="20" as="geometry" />
        </mxCell>
        <mxCell id="gXWH_7wL7tQlujZLRzpM-59" value="" style="rounded=0;whiteSpace=wrap;html=1;fontSize=14;fillColor=#d5e8d4;strokeColor=#82b366;" vertex="1" parent="1">
          <mxGeometry x="570" y="90" width="20" height="20" as="geometry" />
        </mxCell>
        <mxCell id="gXWH_7wL7tQlujZLRzpM-60" value="" style="rounded=0;whiteSpace=wrap;html=1;fontSize=14;fillColor=#d5e8d4;strokeColor=#82b366;" vertex="1" parent="1">
          <mxGeometry x="590" y="90" width="20" height="20" as="geometry" />
        </mxCell>
        <mxCell id="gXWH_7wL7tQlujZLRzpM-61" value="" style="rounded=0;whiteSpace=wrap;html=1;fontSize=14;fillColor=#d5e8d4;strokeColor=#82b366;" vertex="1" parent="1">
          <mxGeometry x="510" y="110" width="20" height="20" as="geometry" />
        </mxCell>
        <mxCell id="gXWH_7wL7tQlujZLRzpM-62" value="" style="rounded=0;whiteSpace=wrap;html=1;fontSize=14;fillColor=#d5e8d4;strokeColor=#82b366;" vertex="1" parent="1">
          <mxGeometry x="530" y="110" width="20" height="20" as="geometry" />
        </mxCell>
        <mxCell id="gXWH_7wL7tQlujZLRzpM-63" value="" style="rounded=0;whiteSpace=wrap;html=1;fontSize=14;fillColor=#d5e8d4;strokeColor=#82b366;" vertex="1" parent="1">
          <mxGeometry x="550" y="110" width="20" height="20" as="geometry" />
        </mxCell>
        <mxCell id="gXWH_7wL7tQlujZLRzpM-64" value="" style="rounded=0;whiteSpace=wrap;html=1;fontSize=14;fillColor=#d5e8d4;strokeColor=#82b366;" vertex="1" parent="1">
          <mxGeometry x="570" y="110" width="20" height="20" as="geometry" />
        </mxCell>
        <mxCell id="gXWH_7wL7tQlujZLRzpM-65" value="" style="rounded=0;whiteSpace=wrap;html=1;fontSize=14;fillColor=#d5e8d4;strokeColor=#82b366;" vertex="1" parent="1">
          <mxGeometry x="590" y="110" width="20" height="20" as="geometry" />
        </mxCell>
        <mxCell id="gXWH_7wL7tQlujZLRzpM-66" value="" style="rounded=0;whiteSpace=wrap;html=1;fontSize=14;fillColor=#d5e8d4;strokeColor=#82b366;" vertex="1" parent="1">
          <mxGeometry x="510" y="130" width="20" height="20" as="geometry" />
        </mxCell>
        <mxCell id="gXWH_7wL7tQlujZLRzpM-67" value="" style="rounded=0;whiteSpace=wrap;html=1;fontSize=14;fillColor=#d5e8d4;strokeColor=#82b366;" vertex="1" parent="1">
          <mxGeometry x="530" y="130" width="20" height="20" as="geometry" />
        </mxCell>
        <mxCell id="gXWH_7wL7tQlujZLRzpM-68" value="" style="rounded=0;whiteSpace=wrap;html=1;fontSize=14;fillColor=#d5e8d4;strokeColor=#82b366;" vertex="1" parent="1">
          <mxGeometry x="550" y="130" width="20" height="20" as="geometry" />
        </mxCell>
        <mxCell id="gXWH_7wL7tQlujZLRzpM-69" value="" style="rounded=0;whiteSpace=wrap;html=1;fontSize=14;fillColor=#d5e8d4;strokeColor=#82b366;" vertex="1" parent="1">
          <mxGeometry x="570" y="130" width="20" height="20" as="geometry" />
        </mxCell>
        <mxCell id="gXWH_7wL7tQlujZLRzpM-70" value="" style="rounded=0;whiteSpace=wrap;html=1;fontSize=14;fillColor=#d5e8d4;strokeColor=#82b366;" vertex="1" parent="1">
          <mxGeometry x="590" y="130" width="20" height="20" as="geometry" />
        </mxCell>
        <mxCell id="gXWH_7wL7tQlujZLRzpM-71" value="" style="rounded=0;whiteSpace=wrap;html=1;fontSize=14;fillColor=#d5e8d4;strokeColor=#82b366;" vertex="1" parent="1">
          <mxGeometry x="510" y="150" width="20" height="20" as="geometry" />
        </mxCell>
        <mxCell id="gXWH_7wL7tQlujZLRzpM-72" value="" style="rounded=0;whiteSpace=wrap;html=1;fontSize=14;fillColor=#d5e8d4;strokeColor=#82b366;" vertex="1" parent="1">
          <mxGeometry x="530" y="150" width="20" height="20" as="geometry" />
        </mxCell>
        <mxCell id="gXWH_7wL7tQlujZLRzpM-73" value="" style="rounded=0;whiteSpace=wrap;html=1;fontSize=14;fillColor=#d5e8d4;strokeColor=#82b366;" vertex="1" parent="1">
          <mxGeometry x="550" y="150" width="20" height="20" as="geometry" />
        </mxCell>
        <mxCell id="gXWH_7wL7tQlujZLRzpM-74" value="" style="rounded=0;whiteSpace=wrap;html=1;fontSize=14;fillColor=#d5e8d4;strokeColor=#82b366;" vertex="1" parent="1">
          <mxGeometry x="570" y="150" width="20" height="20" as="geometry" />
        </mxCell>
        <mxCell id="gXWH_7wL7tQlujZLRzpM-75" value="" style="rounded=0;whiteSpace=wrap;html=1;fontSize=14;fillColor=#d5e8d4;strokeColor=#82b366;" vertex="1" parent="1">
          <mxGeometry x="590" y="150" width="20" height="20" as="geometry" />
        </mxCell>
        <mxCell id="gXWH_7wL7tQlujZLRzpM-76" value="" style="rounded=0;whiteSpace=wrap;html=1;fontSize=14;fillColor=#d5e8d4;strokeColor=#82b366;" vertex="1" parent="1">
          <mxGeometry x="500" y="80" width="20" height="20" as="geometry" />
        </mxCell>
        <mxCell id="gXWH_7wL7tQlujZLRzpM-77" value="" style="rounded=0;whiteSpace=wrap;html=1;fontSize=14;fillColor=#d5e8d4;strokeColor=#82b366;" vertex="1" parent="1">
          <mxGeometry x="520" y="80" width="20" height="20" as="geometry" />
        </mxCell>
        <mxCell id="gXWH_7wL7tQlujZLRzpM-78" value="" style="rounded=0;whiteSpace=wrap;html=1;fontSize=14;fillColor=#d5e8d4;strokeColor=#82b366;" vertex="1" parent="1">
          <mxGeometry x="540" y="80" width="20" height="20" as="geometry" />
        </mxCell>
        <mxCell id="gXWH_7wL7tQlujZLRzpM-79" value="" style="rounded=0;whiteSpace=wrap;html=1;fontSize=14;fillColor=#d5e8d4;strokeColor=#82b366;" vertex="1" parent="1">
          <mxGeometry x="560" y="80" width="20" height="20" as="geometry" />
        </mxCell>
        <mxCell id="gXWH_7wL7tQlujZLRzpM-80" value="" style="rounded=0;whiteSpace=wrap;html=1;fontSize=14;fillColor=#d5e8d4;strokeColor=#82b366;" vertex="1" parent="1">
          <mxGeometry x="580" y="80" width="20" height="20" as="geometry" />
        </mxCell>
        <mxCell id="gXWH_7wL7tQlujZLRzpM-81" value="" style="rounded=0;whiteSpace=wrap;html=1;fontSize=14;fillColor=#d5e8d4;strokeColor=#82b366;" vertex="1" parent="1">
          <mxGeometry x="500" y="100" width="20" height="20" as="geometry" />
        </mxCell>
        <mxCell id="gXWH_7wL7tQlujZLRzpM-82" value="" style="rounded=0;whiteSpace=wrap;html=1;fontSize=14;fillColor=#d5e8d4;strokeColor=#82b366;" vertex="1" parent="1">
          <mxGeometry x="520" y="100" width="20" height="20" as="geometry" />
        </mxCell>
        <mxCell id="gXWH_7wL7tQlujZLRzpM-83" value="" style="rounded=0;whiteSpace=wrap;html=1;fontSize=14;fillColor=#d5e8d4;strokeColor=#82b366;" vertex="1" parent="1">
          <mxGeometry x="540" y="100" width="20" height="20" as="geometry" />
        </mxCell>
        <mxCell id="gXWH_7wL7tQlujZLRzpM-84" value="" style="rounded=0;whiteSpace=wrap;html=1;fontSize=14;fillColor=#d5e8d4;strokeColor=#82b366;" vertex="1" parent="1">
          <mxGeometry x="560" y="100" width="20" height="20" as="geometry" />
        </mxCell>
        <mxCell id="gXWH_7wL7tQlujZLRzpM-85" value="" style="rounded=0;whiteSpace=wrap;html=1;fontSize=14;fillColor=#d5e8d4;strokeColor=#82b366;" vertex="1" parent="1">
          <mxGeometry x="580" y="100" width="20" height="20" as="geometry" />
        </mxCell>
        <mxCell id="gXWH_7wL7tQlujZLRzpM-86" value="" style="rounded=0;whiteSpace=wrap;html=1;fontSize=14;fillColor=#d5e8d4;strokeColor=#82b366;" vertex="1" parent="1">
          <mxGeometry x="500" y="120" width="20" height="20" as="geometry" />
        </mxCell>
        <mxCell id="gXWH_7wL7tQlujZLRzpM-87" value="" style="rounded=0;whiteSpace=wrap;html=1;fontSize=14;fillColor=#d5e8d4;strokeColor=#82b366;" vertex="1" parent="1">
          <mxGeometry x="520" y="120" width="20" height="20" as="geometry" />
        </mxCell>
        <mxCell id="gXWH_7wL7tQlujZLRzpM-88" value="" style="rounded=0;whiteSpace=wrap;html=1;fontSize=14;fillColor=#d5e8d4;strokeColor=#82b366;" vertex="1" parent="1">
          <mxGeometry x="540" y="120" width="20" height="20" as="geometry" />
        </mxCell>
        <mxCell id="gXWH_7wL7tQlujZLRzpM-89" value="" style="rounded=0;whiteSpace=wrap;html=1;fontSize=14;fillColor=#d5e8d4;strokeColor=#82b366;" vertex="1" parent="1">
          <mxGeometry x="560" y="120" width="20" height="20" as="geometry" />
        </mxCell>
        <mxCell id="gXWH_7wL7tQlujZLRzpM-90" value="" style="rounded=0;whiteSpace=wrap;html=1;fontSize=14;fillColor=#d5e8d4;strokeColor=#82b366;" vertex="1" parent="1">
          <mxGeometry x="580" y="120" width="20" height="20" as="geometry" />
        </mxCell>
        <mxCell id="gXWH_7wL7tQlujZLRzpM-91" value="" style="rounded=0;whiteSpace=wrap;html=1;fontSize=14;fillColor=#d5e8d4;strokeColor=#82b366;" vertex="1" parent="1">
          <mxGeometry x="500" y="140" width="20" height="20" as="geometry" />
        </mxCell>
        <mxCell id="gXWH_7wL7tQlujZLRzpM-92" value="" style="rounded=0;whiteSpace=wrap;html=1;fontSize=14;fillColor=#d5e8d4;strokeColor=#82b366;" vertex="1" parent="1">
          <mxGeometry x="520" y="140" width="20" height="20" as="geometry" />
        </mxCell>
        <mxCell id="gXWH_7wL7tQlujZLRzpM-93" value="" style="rounded=0;whiteSpace=wrap;html=1;fontSize=14;fillColor=#d5e8d4;strokeColor=#82b366;" vertex="1" parent="1">
          <mxGeometry x="540" y="140" width="20" height="20" as="geometry" />
        </mxCell>
        <mxCell id="gXWH_7wL7tQlujZLRzpM-94" value="" style="rounded=0;whiteSpace=wrap;html=1;fontSize=14;fillColor=#d5e8d4;strokeColor=#82b366;" vertex="1" parent="1">
          <mxGeometry x="560" y="140" width="20" height="20" as="geometry" />
        </mxCell>
        <mxCell id="gXWH_7wL7tQlujZLRzpM-95" value="" style="rounded=0;whiteSpace=wrap;html=1;fontSize=14;fillColor=#d5e8d4;strokeColor=#82b366;" vertex="1" parent="1">
          <mxGeometry x="580" y="140" width="20" height="20" as="geometry" />
        </mxCell>
        <mxCell id="gXWH_7wL7tQlujZLRzpM-96" value="" style="rounded=0;whiteSpace=wrap;html=1;fontSize=14;fillColor=#d5e8d4;strokeColor=#82b366;" vertex="1" parent="1">
          <mxGeometry x="500" y="160" width="20" height="20" as="geometry" />
        </mxCell>
        <mxCell id="gXWH_7wL7tQlujZLRzpM-97" value="" style="rounded=0;whiteSpace=wrap;html=1;fontSize=14;fillColor=#d5e8d4;strokeColor=#82b366;" vertex="1" parent="1">
          <mxGeometry x="520" y="160" width="20" height="20" as="geometry" />
        </mxCell>
        <mxCell id="gXWH_7wL7tQlujZLRzpM-98" value="" style="rounded=0;whiteSpace=wrap;html=1;fontSize=14;fillColor=#d5e8d4;strokeColor=#82b366;" vertex="1" parent="1">
          <mxGeometry x="540" y="160" width="20" height="20" as="geometry" />
        </mxCell>
        <mxCell id="gXWH_7wL7tQlujZLRzpM-99" value="" style="rounded=0;whiteSpace=wrap;html=1;fontSize=14;fillColor=#d5e8d4;strokeColor=#82b366;" vertex="1" parent="1">
          <mxGeometry x="560" y="160" width="20" height="20" as="geometry" />
        </mxCell>
        <mxCell id="gXWH_7wL7tQlujZLRzpM-100" value="" style="rounded=0;whiteSpace=wrap;html=1;fontSize=14;fillColor=#d5e8d4;strokeColor=#82b366;" vertex="1" parent="1">
          <mxGeometry x="580" y="160" width="20" height="20" as="geometry" />
        </mxCell>
        <mxCell id="gXWH_7wL7tQlujZLRzpM-101" value="" style="rounded=0;whiteSpace=wrap;html=1;fontSize=14;fillColor=#d5e8d4;strokeColor=#82b366;" vertex="1" parent="1">
          <mxGeometry x="490" y="90" width="20" height="20" as="geometry" />
        </mxCell>
        <mxCell id="gXWH_7wL7tQlujZLRzpM-102" value="" style="rounded=0;whiteSpace=wrap;html=1;fontSize=14;fillColor=#d5e8d4;strokeColor=#82b366;" vertex="1" parent="1">
          <mxGeometry x="510" y="90" width="20" height="20" as="geometry" />
        </mxCell>
        <mxCell id="gXWH_7wL7tQlujZLRzpM-103" value="" style="rounded=0;whiteSpace=wrap;html=1;fontSize=14;fillColor=#d5e8d4;strokeColor=#82b366;" vertex="1" parent="1">
          <mxGeometry x="530" y="90" width="20" height="20" as="geometry" />
        </mxCell>
        <mxCell id="gXWH_7wL7tQlujZLRzpM-104" value="" style="rounded=0;whiteSpace=wrap;html=1;fontSize=14;fillColor=#d5e8d4;strokeColor=#82b366;" vertex="1" parent="1">
          <mxGeometry x="550" y="90" width="20" height="20" as="geometry" />
        </mxCell>
        <mxCell id="gXWH_7wL7tQlujZLRzpM-105" value="" style="rounded=0;whiteSpace=wrap;html=1;fontSize=14;fillColor=#d5e8d4;strokeColor=#82b366;" vertex="1" parent="1">
          <mxGeometry x="570" y="90" width="20" height="20" as="geometry" />
        </mxCell>
        <mxCell id="gXWH_7wL7tQlujZLRzpM-106" value="" style="rounded=0;whiteSpace=wrap;html=1;fontSize=14;fillColor=#d5e8d4;strokeColor=#82b366;" vertex="1" parent="1">
          <mxGeometry x="490" y="110" width="20" height="20" as="geometry" />
        </mxCell>
        <mxCell id="gXWH_7wL7tQlujZLRzpM-107" value="" style="rounded=0;whiteSpace=wrap;html=1;fontSize=14;fillColor=#d5e8d4;strokeColor=#82b366;" vertex="1" parent="1">
          <mxGeometry x="510" y="110" width="20" height="20" as="geometry" />
        </mxCell>
        <mxCell id="gXWH_7wL7tQlujZLRzpM-108" value="" style="rounded=0;whiteSpace=wrap;html=1;fontSize=14;fillColor=#d5e8d4;strokeColor=#82b366;" vertex="1" parent="1">
          <mxGeometry x="530" y="110" width="20" height="20" as="geometry" />
        </mxCell>
        <mxCell id="gXWH_7wL7tQlujZLRzpM-109" value="" style="rounded=0;whiteSpace=wrap;html=1;fontSize=14;fillColor=#d5e8d4;strokeColor=#82b366;" vertex="1" parent="1">
          <mxGeometry x="550" y="110" width="20" height="20" as="geometry" />
        </mxCell>
        <mxCell id="gXWH_7wL7tQlujZLRzpM-110" value="" style="rounded=0;whiteSpace=wrap;html=1;fontSize=14;fillColor=#d5e8d4;strokeColor=#82b366;" vertex="1" parent="1">
          <mxGeometry x="570" y="110" width="20" height="20" as="geometry" />
        </mxCell>
        <mxCell id="gXWH_7wL7tQlujZLRzpM-111" value="" style="rounded=0;whiteSpace=wrap;html=1;fontSize=14;fillColor=#d5e8d4;strokeColor=#82b366;" vertex="1" parent="1">
          <mxGeometry x="490" y="130" width="20" height="20" as="geometry" />
        </mxCell>
        <mxCell id="gXWH_7wL7tQlujZLRzpM-112" value="" style="rounded=0;whiteSpace=wrap;html=1;fontSize=14;fillColor=#d5e8d4;strokeColor=#82b366;" vertex="1" parent="1">
          <mxGeometry x="510" y="130" width="20" height="20" as="geometry" />
        </mxCell>
        <mxCell id="gXWH_7wL7tQlujZLRzpM-113" value="" style="rounded=0;whiteSpace=wrap;html=1;fontSize=14;fillColor=#d5e8d4;strokeColor=#82b366;" vertex="1" parent="1">
          <mxGeometry x="530" y="130" width="20" height="20" as="geometry" />
        </mxCell>
        <mxCell id="gXWH_7wL7tQlujZLRzpM-114" value="" style="rounded=0;whiteSpace=wrap;html=1;fontSize=14;fillColor=#d5e8d4;strokeColor=#82b366;" vertex="1" parent="1">
          <mxGeometry x="550" y="130" width="20" height="20" as="geometry" />
        </mxCell>
        <mxCell id="gXWH_7wL7tQlujZLRzpM-115" value="" style="rounded=0;whiteSpace=wrap;html=1;fontSize=14;fillColor=#d5e8d4;strokeColor=#82b366;" vertex="1" parent="1">
          <mxGeometry x="570" y="130" width="20" height="20" as="geometry" />
        </mxCell>
        <mxCell id="gXWH_7wL7tQlujZLRzpM-116" value="" style="rounded=0;whiteSpace=wrap;html=1;fontSize=14;fillColor=#d5e8d4;strokeColor=#82b366;" vertex="1" parent="1">
          <mxGeometry x="490" y="150" width="20" height="20" as="geometry" />
        </mxCell>
        <mxCell id="gXWH_7wL7tQlujZLRzpM-117" value="" style="rounded=0;whiteSpace=wrap;html=1;fontSize=14;fillColor=#d5e8d4;strokeColor=#82b366;" vertex="1" parent="1">
          <mxGeometry x="510" y="150" width="20" height="20" as="geometry" />
        </mxCell>
        <mxCell id="gXWH_7wL7tQlujZLRzpM-118" value="" style="rounded=0;whiteSpace=wrap;html=1;fontSize=14;fillColor=#d5e8d4;strokeColor=#82b366;" vertex="1" parent="1">
          <mxGeometry x="530" y="150" width="20" height="20" as="geometry" />
        </mxCell>
        <mxCell id="gXWH_7wL7tQlujZLRzpM-119" value="" style="rounded=0;whiteSpace=wrap;html=1;fontSize=14;fillColor=#d5e8d4;strokeColor=#82b366;" vertex="1" parent="1">
          <mxGeometry x="550" y="150" width="20" height="20" as="geometry" />
        </mxCell>
        <mxCell id="gXWH_7wL7tQlujZLRzpM-120" value="" style="rounded=0;whiteSpace=wrap;html=1;fontSize=14;fillColor=#d5e8d4;strokeColor=#82b366;" vertex="1" parent="1">
          <mxGeometry x="570" y="150" width="20" height="20" as="geometry" />
        </mxCell>
        <mxCell id="gXWH_7wL7tQlujZLRzpM-121" value="" style="rounded=0;whiteSpace=wrap;html=1;fontSize=14;fillColor=#d5e8d4;strokeColor=#82b366;" vertex="1" parent="1">
          <mxGeometry x="490" y="170" width="20" height="20" as="geometry" />
        </mxCell>
        <mxCell id="gXWH_7wL7tQlujZLRzpM-122" value="" style="rounded=0;whiteSpace=wrap;html=1;fontSize=14;fillColor=#d5e8d4;strokeColor=#82b366;" vertex="1" parent="1">
          <mxGeometry x="510" y="170" width="20" height="20" as="geometry" />
        </mxCell>
        <mxCell id="gXWH_7wL7tQlujZLRzpM-123" value="" style="rounded=0;whiteSpace=wrap;html=1;fontSize=14;fillColor=#d5e8d4;strokeColor=#82b366;" vertex="1" parent="1">
          <mxGeometry x="530" y="170" width="20" height="20" as="geometry" />
        </mxCell>
        <mxCell id="gXWH_7wL7tQlujZLRzpM-128" style="edgeStyle=orthogonalEdgeStyle;rounded=0;orthogonalLoop=1;jettySize=auto;html=1;entryX=0.5;entryY=0;entryDx=0;entryDy=0;fontSize=14;" edge="1" parent="1" source="gXWH_7wL7tQlujZLRzpM-124" target="gXWH_7wL7tQlujZLRzpM-127">
          <mxGeometry relative="1" as="geometry" />
        </mxCell>
        <mxCell id="gXWH_7wL7tQlujZLRzpM-124" value="" style="rounded=0;whiteSpace=wrap;html=1;fontSize=14;fillColor=#d5e8d4;strokeColor=#82b366;" vertex="1" parent="1">
          <mxGeometry x="550" y="170" width="20" height="20" as="geometry" />
        </mxCell>
        <mxCell id="gXWH_7wL7tQlujZLRzpM-125" value="" style="rounded=0;whiteSpace=wrap;html=1;fontSize=14;fillColor=#d5e8d4;strokeColor=#82b366;" vertex="1" parent="1">
          <mxGeometry x="570" y="170" width="20" height="20" as="geometry" />
        </mxCell>
        <mxCell id="gXWH_7wL7tQlujZLRzpM-126" value="&lt;font style=&quot;font-size: 12px;&quot;&gt;3D CNN layer x3&lt;/font&gt;" style="text;html=1;strokeColor=none;fillColor=none;align=center;verticalAlign=middle;whiteSpace=wrap;rounded=0;fontSize=14;" vertex="1" parent="1">
          <mxGeometry x="640" y="95" width="110" height="30" as="geometry" />
        </mxCell>
        <mxCell id="gXWH_7wL7tQlujZLRzpM-131" style="edgeStyle=orthogonalEdgeStyle;rounded=0;orthogonalLoop=1;jettySize=auto;html=1;entryX=0.5;entryY=0;entryDx=0;entryDy=0;fontSize=12;" edge="1" parent="1" source="gXWH_7wL7tQlujZLRzpM-127" target="gXWH_7wL7tQlujZLRzpM-130">
          <mxGeometry relative="1" as="geometry" />
        </mxCell>
        <mxCell id="gXWH_7wL7tQlujZLRzpM-127" value="&lt;font style=&quot;font-size: 12px;&quot;&gt;Max Pooling Layer&lt;/font&gt;" style="rounded=0;whiteSpace=wrap;html=1;fontSize=14;fillColor=#ffe6cc;strokeColor=#d79b00;" vertex="1" parent="1">
          <mxGeometry x="460" y="220" width="200" height="30" as="geometry" />
        </mxCell>
        <mxCell id="gXWH_7wL7tQlujZLRzpM-130" value="&lt;font style=&quot;font-size: 12px;&quot;&gt;Batch Normalization Layer&lt;/font&gt;" style="rounded=0;whiteSpace=wrap;html=1;fontSize=14;fillColor=#f8cecc;strokeColor=#b85450;" vertex="1" parent="1">
          <mxGeometry x="460" y="280" width="200" height="30" as="geometry" />
        </mxCell>
        <mxCell id="gXWH_7wL7tQlujZLRzpM-133" value="CNN Unit" style="text;html=1;strokeColor=none;fillColor=none;align=center;verticalAlign=middle;whiteSpace=wrap;rounded=0;fontSize=12;" vertex="1" parent="1">
          <mxGeometry x="565" y="10" width="60" height="30" as="geometry" />
        </mxCell>
        <mxCell id="gXWH_7wL7tQlujZLRzpM-138" style="edgeStyle=orthogonalEdgeStyle;rounded=0;orthogonalLoop=1;jettySize=auto;html=1;entryX=0.5;entryY=0;entryDx=0;entryDy=0;fontSize=12;" edge="1" parent="1" source="gXWH_7wL7tQlujZLRzpM-134" target="gXWH_7wL7tQlujZLRzpM-135">
          <mxGeometry relative="1" as="geometry" />
        </mxCell>
        <mxCell id="gXWH_7wL7tQlujZLRzpM-134" value="&lt;span style=&quot;color: rgb(0, 0, 0);&quot;&gt;CNN Unit&lt;/span&gt;" style="rounded=0;whiteSpace=wrap;html=1;fillColor=#f5f5f5;fontColor=#333333;strokeColor=#666666;" vertex="1" parent="1">
          <mxGeometry x="180" y="60" width="200" height="30" as="geometry" />
        </mxCell>
        <mxCell id="gXWH_7wL7tQlujZLRzpM-139" style="edgeStyle=orthogonalEdgeStyle;rounded=0;orthogonalLoop=1;jettySize=auto;html=1;fontSize=12;" edge="1" parent="1" source="gXWH_7wL7tQlujZLRzpM-135" target="gXWH_7wL7tQlujZLRzpM-136">
          <mxGeometry relative="1" as="geometry" />
        </mxCell>
        <mxCell id="gXWH_7wL7tQlujZLRzpM-135" value="&lt;span style=&quot;color: rgb(0, 0, 0);&quot;&gt;CNN Unit&lt;/span&gt;" style="rounded=0;whiteSpace=wrap;html=1;fillColor=#f5f5f5;fontColor=#333333;strokeColor=#666666;" vertex="1" parent="1">
          <mxGeometry x="180" y="110" width="200" height="30" as="geometry" />
        </mxCell>
        <mxCell id="gXWH_7wL7tQlujZLRzpM-141" style="edgeStyle=orthogonalEdgeStyle;rounded=0;orthogonalLoop=1;jettySize=auto;html=1;entryX=0.5;entryY=0;entryDx=0;entryDy=0;fontSize=12;" edge="1" parent="1" source="gXWH_7wL7tQlujZLRzpM-136" target="gXWH_7wL7tQlujZLRzpM-140">
          <mxGeometry relative="1" as="geometry" />
        </mxCell>
        <mxCell id="gXWH_7wL7tQlujZLRzpM-136" value="&lt;span style=&quot;color: rgb(0, 0, 0);&quot;&gt;CNN Unit&lt;/span&gt;" style="rounded=0;whiteSpace=wrap;html=1;fillColor=#f5f5f5;fontColor=#333333;strokeColor=#666666;" vertex="1" parent="1">
          <mxGeometry x="180" y="160" width="200" height="30" as="geometry" />
        </mxCell>
        <mxCell id="gXWH_7wL7tQlujZLRzpM-143" style="edgeStyle=orthogonalEdgeStyle;rounded=0;orthogonalLoop=1;jettySize=auto;html=1;entryX=0.5;entryY=0;entryDx=0;entryDy=0;fontSize=12;" edge="1" parent="1" source="gXWH_7wL7tQlujZLRzpM-140" target="gXWH_7wL7tQlujZLRzpM-142">
          <mxGeometry relative="1" as="geometry" />
        </mxCell>
        <mxCell id="gXWH_7wL7tQlujZLRzpM-140" value="&lt;span style=&quot;color: rgb(0, 0, 0);&quot;&gt;Flatten Layer&lt;/span&gt;" style="rounded=0;whiteSpace=wrap;html=1;fillColor=#dae8fc;strokeColor=#6c8ebf;" vertex="1" parent="1">
          <mxGeometry x="180" y="210" width="200" height="30" as="geometry" />
        </mxCell>
        <mxCell id="gXWH_7wL7tQlujZLRzpM-145" style="edgeStyle=orthogonalEdgeStyle;rounded=0;orthogonalLoop=1;jettySize=auto;html=1;entryX=0.5;entryY=0;entryDx=0;entryDy=0;fontSize=12;" edge="1" parent="1" source="gXWH_7wL7tQlujZLRzpM-142" target="gXWH_7wL7tQlujZLRzpM-144">
          <mxGeometry relative="1" as="geometry" />
        </mxCell>
        <mxCell id="gXWH_7wL7tQlujZLRzpM-142" value="&lt;span style=&quot;color: rgb(0, 0, 0);&quot;&gt;Dense + Dropout&lt;/span&gt;" style="rounded=0;whiteSpace=wrap;html=1;fillColor=#d5e8d4;strokeColor=#82b366;" vertex="1" parent="1">
          <mxGeometry x="180" y="260" width="200" height="30" as="geometry" />
        </mxCell>
        <mxCell id="gXWH_7wL7tQlujZLRzpM-147" style="edgeStyle=orthogonalEdgeStyle;rounded=0;orthogonalLoop=1;jettySize=auto;html=1;entryX=0.5;entryY=0;entryDx=0;entryDy=0;fontSize=12;" edge="1" parent="1" source="gXWH_7wL7tQlujZLRzpM-144" target="gXWH_7wL7tQlujZLRzpM-146">
          <mxGeometry relative="1" as="geometry" />
        </mxCell>
        <mxCell id="gXWH_7wL7tQlujZLRzpM-144" value="&lt;span style=&quot;color: rgb(0, 0, 0);&quot;&gt;Dense + Dropout&lt;/span&gt;" style="rounded=0;whiteSpace=wrap;html=1;fillColor=#d5e8d4;strokeColor=#82b366;" vertex="1" parent="1">
          <mxGeometry x="180" y="310" width="200" height="30" as="geometry" />
        </mxCell>
        <mxCell id="gXWH_7wL7tQlujZLRzpM-146" value="Output Layer" style="rounded=0;whiteSpace=wrap;html=1;" vertex="1" parent="1">
          <mxGeometry x="180" y="360" width="200" height="30" as="geometry" />
        </mxCell>
      </root>
    </mxGraphModel>
  </diagram>
</mxfile>
